<svg width="1920" height="372" viewBox="0 0 1920 372" fill="none" xmlns="http://www.w3.org/2000/svg">
<path d="M1692.97 185.748C1692.97 185.748 1693.19 181.553 1690.76 176.476C1688.34 171.4 1689 165.66 1692.08 155.066C1695.17 144.472 1704.74 119.639 1703.97 116.771M1703.76 116.439C1694.51 95.9101 1713.22 82.0072 1713.22 82.0072C1713.22 82.0072 1709.48 73.1767 1713.88 65.6731C1718.29 58.1695 1722.25 55.2973 1722.25 47.5754C1722.25 45.0056 1721.38 40.9199 1722.92 38.6189C1724.7 35.9567 1730.41 35.457 1733.13 36.0743C1737.29 37.0191 1737.41 41.0081 1737.4 44.4849C1737.38 48.8645 1736.96 53.6807 1738.98 57.7286C1741.62 63.0277 1749.99 68.1043 1746.9 81.348C1746.9 81.348 1755.93 92.1646 1757.91 101.213C1759.89 110.262 1756.37 116.221 1756.37 116.221C1756.37 116.221 1770.68 168.532 1770.02 174.272C1769.36 180.012 1766.72 181.998 1765.84 184.866M1675.94 195.313C1646.24 176.833 1625.82 143.527 1625.82 105.845C1625.82 47.9407 1672.54 1 1730.17 1C1787.81 1 1834.53 47.9407 1834.53 105.845C1834.53 145.656 1813.12 180.352 1780.59 198.11" stroke="#E6D4A5" stroke-opacity="0.38" stroke-linecap="round" stroke-linejoin="round"/>
<path d="M1695.86 229.422C1695.69 232.63 1695.86 239.625 1699.99 244.261C1705.49 250.442 1714.53 254.859 1721.8 259.054C1729.07 263.249 1734.8 260.599 1739.43 257.286C1744.06 253.973 1757.72 248.674 1760.37 238.958C1761.31 235.498 1761.98 231.937 1762.47 228.347M1763.75 207.499C1763.73 205.349 1763.66 203.195 1763.59 201.041M1762.83 187.293C1761.36 182.909 1755.93 181.671 1751.25 181.662C1744.02 181.65 1736.46 183.749 1730.17 187.289C1730.17 187.289 1716.73 180.885 1707.26 182.431C1704.74 182.842 1701.25 182.892 1698.99 184.236C1697.17 185.324 1696.22 187.385 1695.76 189.859M1695.57 197.975C1695.78 200.906 1696.15 203.661 1696.24 205.538C1696.29 206.667 1696.35 207.801 1696.4 208.931" stroke="#E6D4A5" stroke-opacity="0.38" stroke-linecap="round" stroke-linejoin="round"/>
<path d="M1696.25 208.25C1696.25 208.25 1706.84 224.53 1726.03 217.396" stroke="#E6D4A5" stroke-opacity="0.38" stroke-miterlimit="10"/>
<path d="M1733.39 217.149C1733.39 217.149 1746.18 224.262 1760.69 211.863" stroke="#E6D4A5" stroke-opacity="0.38" stroke-linecap="round" stroke-linejoin="round"/>
<path d="M1704.18 215.439C1704.18 215.439 1704.55 215.733 1707.27 214.922C1709.98 214.112 1713.5 210.203 1717.31 211.458C1721.13 212.709 1725.75 216.694 1725.75 216.694C1725.75 216.694 1727.51 218.613 1727.73 220.049C1727.95 221.49 1727.04 227.167 1726.04 229.82C1725.06 232.474 1722.12 233.73 1723.11 236.161C1724.1 238.592 1726.26 237.526 1728.02 237.635C1729.78 237.744 1730.15 239.403 1732.02 239.403C1733.06 239.403 1733.95 238.865 1734.7 238.193C1735.3 237.66 1735.89 237.366 1736.69 237.324C1737.51 237.282 1738.34 237.387 1738.88 236.598C1741.19 233.259 1736.1 231.517 1734.85 229.002C1733.64 226.57 1732.43 221.259 1732.5 218.827C1732.5 218.827 1734.7 213.15 1739.98 211.231C1745.27 209.312 1751.72 215.288 1755.02 215.657M1731.62 210.278C1731.62 211.416 1730.7 212.344 1729.57 212.344C1728.43 212.344 1727.51 211.42 1727.51 210.278C1727.51 209.136 1728.43 208.212 1729.57 208.212C1730.7 208.212 1731.62 209.136 1731.62 210.278ZM1746.15 214.15C1746.15 215.88 1744.88 217.282 1743.32 217.282C1741.76 217.282 1740.5 215.88 1740.5 214.15C1740.5 212.42 1741.76 211.017 1743.32 211.017C1744.88 211.017 1746.15 212.42 1746.15 214.15ZM1719.15 214.444C1719.15 216.094 1717.88 217.429 1716.33 217.429C1714.77 217.429 1713.5 216.094 1713.5 214.444C1713.5 212.793 1714.77 211.458 1716.33 211.458C1717.88 211.458 1719.15 212.793 1719.15 214.444ZM1710.07 242.833C1710.07 242.833 1713.7 243.333 1714.91 244.492C1716.13 245.651 1717.78 245.487 1719.53 244.437C1721.29 243.387 1725.48 243.387 1727.35 244.16C1729.22 244.933 1729.55 245.155 1731.2 244.546C1732.85 243.937 1733.95 243.883 1735.77 244.16C1737.58 244.437 1739.4 245.323 1740.99 245.21C1742.59 245.101 1743.36 245.042 1744.4 244.324C1745.45 243.606 1746.11 243.161 1748.69 242.997C1750.13 242.904 1749.57 245.541 1746.93 245.596C1744.29 245.651 1743.3 245.264 1741.43 246.482C1739.56 247.7 1735.82 251.571 1730.15 251.458C1724.49 251.349 1719.53 248.031 1717.44 246.482C1715.92 245.352 1714.01 245.894 1712.28 245.554C1711.14 245.327 1708.56 244.265 1710.07 242.833Z" stroke="#E6D4A5" stroke-opacity="0.38" stroke-miterlimit="10"/>
<path d="M1781.02 193.803C1781.02 199.359 1776.48 203.86 1770.88 203.86C1765.28 203.86 1760.74 199.359 1760.74 193.803C1760.74 188.248 1765.28 183.747 1770.88 183.747C1776.48 183.747 1781.02 188.248 1781.02 193.803ZM1696.38 193.803C1696.38 199.359 1691.84 203.86 1686.23 203.86C1680.63 203.86 1676.09 199.359 1676.09 193.803C1676.09 188.248 1680.63 183.747 1686.23 183.747C1691.84 183.747 1696.38 188.248 1696.38 193.803ZM1789.55 218.649C1789.55 226.98 1782.77 233.732 1774.41 233.732C1766.05 233.732 1759.27 226.98 1759.27 218.649C1759.27 210.318 1766.05 203.566 1774.41 203.566C1782.76 203.566 1789.55 210.318 1789.55 218.649ZM1699.9 218.943C1699.9 227.274 1693.13 234.026 1684.76 234.026C1676.4 234.026 1669.63 227.274 1669.63 218.943C1669.63 210.612 1676.41 203.86 1684.76 203.86C1693.12 203.86 1699.9 210.612 1699.9 218.943Z" stroke="#E6D4A5" stroke-opacity="0.38" stroke-miterlimit="10"/>
<path d="M1774.98 193.05C1774.98 195.443 1773.01 197.388 1770.58 197.388C1768.15 197.388 1766.18 195.448 1766.18 193.05C1766.18 190.652 1768.15 188.717 1770.58 188.717C1773.01 188.717 1774.98 190.656 1774.98 193.05ZM1691.2 193.306C1691.2 195.721 1689.18 197.677 1686.69 197.677C1684.2 197.677 1682.18 195.721 1682.18 193.306C1682.18 190.892 1684.2 188.935 1686.69 188.935C1689.19 188.935 1691.2 190.892 1691.2 193.306ZM1780.96 218.634C1780.96 222.057 1778.14 224.832 1774.65 224.832C1771.16 224.832 1768.34 222.057 1768.34 218.634C1768.34 215.212 1771.17 212.437 1774.65 212.437C1778.14 212.437 1780.96 215.212 1780.96 218.634ZM1691.43 218.634C1691.43 222.057 1688.6 224.832 1685.11 224.832C1681.63 224.832 1678.8 222.057 1678.8 218.634C1678.8 215.212 1681.63 212.437 1685.11 212.437C1688.6 212.437 1691.43 215.212 1691.43 218.634Z" stroke="#E6D4A5" stroke-opacity="0.38" stroke-miterlimit="10"/>
<path d="M1710.89 209.641C1710.89 209.641 1717.12 205.467 1724.44 215.763M1736.29 213.592C1736.29 213.592 1742.74 206.08 1748.41 209.809M1695.69 199.127C1695.69 199.127 1705.55 204.636 1706.27 204.413C1706.98 204.191 1707.75 201.911 1710.12 202.02C1712.49 202.129 1723.62 208.474 1723.62 208.474C1723.62 208.474 1711.66 203.296 1710.67 203.855C1709.68 204.413 1707.37 208.142 1705.99 207.974C1704.61 207.806 1696.13 202.964 1696.13 202.964M1762.49 199.664C1762.49 199.664 1753.54 205.081 1752.61 204.636C1751.7 204.191 1751.95 201.705 1749.38 202.003C1746.81 202.297 1735.57 208.642 1735.57 208.642C1735.57 208.642 1747.33 203.557 1748.39 203.892C1749.46 204.224 1752.1 208.083 1753.46 207.898C1754.82 207.714 1763.52 202.482 1763.52 202.482" stroke="#E6D4A5" stroke-opacity="0.38" stroke-linecap="round" stroke-linejoin="round"/>
<path d="M1680.81 233.474C1680.81 233.474 1658.33 245.458 1667.81 257.664C1677.28 269.871 1723.35 281.409 1734.59 279.856C1745.82 278.302 1792.54 266.763 1794.31 253.003C1796.07 239.243 1778 233.029 1778 233.029" stroke="#E6D4A5" stroke-opacity="0.38" stroke-linecap="round" stroke-linejoin="round"/>
<path d="M1682.17 184.523C1655.04 168.306 1636.89 138.833 1636.89 105.17C1636.89 54.0132 1678.79 12.5438 1730.47 12.5438C1782.15 12.5438 1824.04 54.0132 1824.04 105.17C1824.04 139.723 1804.93 169.86 1776.6 185.778M1737.73 52.216C1763.82 55.9951 1783.86 78.3297 1783.86 105.317C1783.86 121.798 1776.39 136.545 1764.62 146.387M1694.59 145.925C1683.15 136.087 1675.91 121.542 1675.91 105.317C1675.91 78.5648 1695.6 56.3815 1721.35 52.3168M1689.19 168.508C1668.32 155.113 1654.49 131.749 1654.49 105.17C1654.49 63.5953 1688.31 29.8899 1730.03 29.8899C1771.74 29.8899 1805.56 63.5953 1805.56 105.17C1805.56 132.253 1791.21 155.994 1769.68 169.255M1722.69 184.787C1722.69 184.787 1722.11 193.97 1724.88 196.754C1727.67 199.542 1733.22 199.542 1735.85 197.065C1738.47 194.588 1738.44 186.059 1738.2 184.128M1695.96 188.978C1695.96 188.978 1698.27 172.329 1729.74 184.678C1729.74 184.678 1754.82 173.76 1763.29 186.992M1703.33 115.537C1703.33 115.537 1730.17 106.056 1756.35 116.2M1713.24 82.0122C1713.24 82.0122 1728.2 76.7172 1746.9 81.3487M1704.21 93.4797C1704.21 93.4797 1729.74 85.5394 1755.26 93.7022M1701.35 102.965C1701.35 102.965 1732.15 93.4839 1758.11 102.743M1696.07 142.44C1696.07 142.44 1731.93 132.736 1762.96 142.881M1702.45 125.9C1702.45 125.9 1737.22 114.21 1759.44 128.768M1690.79 158.762C1690.79 158.762 1724.24 140.017 1767.35 158.543M1732.48 206.509H1726.87V205.627H1732.48V206.509ZM1733.92 204.522H1725.89V202.65H1733.92V204.522ZM1730.52 193.038C1730.52 193.038 1728.59 195.822 1729.37 196.985C1730.14 198.148 1731.91 197.607 1731.91 196.364C1731.91 195.121 1730.52 193.038 1730.52 193.038ZM1726.89 194.588L1726.77 188.743C1726.77 188.743 1729.2 190.405 1731.37 190.019C1733.53 189.633 1734.3 188.743 1734.3 188.743V194.663L1730.44 192.186L1726.89 194.583V194.588ZM1729.51 183.909C1727.56 183.359 1727.2 180.895 1727.54 179.16C1728.31 175.192 1730.73 171.884 1730.73 171.884C1730.73 171.884 1732.82 177.615 1733.15 180.374C1733.38 182.242 1731.7 184.371 1729.71 183.956C1729.65 183.943 1729.58 183.926 1729.52 183.909H1729.51Z" stroke="#E6D4A5" stroke-opacity="0.38" stroke-linecap="round" stroke-linejoin="round"/>
<path d="M-72 348.897C-0.207146 309.044 78.1938 268.33 157.539 255.259M2019.5 198.628C1917 389.628 1571.83 330.358 1472.02 282.828C1458.35 276.32 1443.33 267.329 1426.34 259.033M182.172 252.123C214.949 249.216 247.788 251.511 280.29 261.008C339.247 278.233 391.101 318.281 452.028 326.02C516.171 334.171 578.72 305.212 635.868 274.946C672.772 255.401 709.729 234.781 750.243 224.633C795.37 213.32 843.05 215.586 888.642 224.803C1007.35 248.79 1027.74 292.681 1115.52 295.368C1138.99 296.087 1162.24 291.996 1184.49 285.712M1222.56 272.887C1259.57 258.744 1292.05 242.532 1315.72 238.937C1331.95 236.472 1346.97 236.504 1360.95 238.233" stroke="#EDE5CD" stroke-opacity="0.38" stroke-miterlimit="10"/>
<path d="M182.9 118.381C183.027 119.543 182.256 120.356 181.683 121.192C180.478 122.953 178.869 124.342 177.14 125.59C176.99 125.698 176.766 125.709 176.625 125.823C176.235 126.143 175.936 126.448 176.068 127.087C176.249 127.968 175.827 128.814 175.483 129.602C174.305 132.3 172.64 134.712 170.859 137.042C167.158 141.886 163.429 146.706 159.725 151.547C156.637 155.585 153.731 159.759 151.158 164.131C148.219 169.121 145.593 174.278 143.929 179.87C143.075 182.739 142.353 185.624 141.836 188.572C141.217 192.096 140.919 195.639 140.799 199.208C140.671 202.988 140.873 206.75 141.242 210.512C141.511 213.26 141.963 215.975 142.431 218.695C143.276 223.613 144.608 228.397 146.202 233.113C147.014 235.518 147.968 237.87 149.022 240.186C150.379 243.165 151.916 246.042 153.672 248.806C154.104 249.485 154.608 250.123 155.001 250.824C155.255 251.277 159.331 255.508 156.196 255.508" stroke="#EDE5CD" stroke-opacity="0.38" stroke-linecap="round" stroke-linejoin="round"/>
<path d="M198.227 115.405C198.704 115.346 199.117 115.457 199.504 115.769C200.062 116.22 200.793 116.181 201.445 116.277C205.166 116.819 208.91 117.182 212.659 117.475C215.047 117.661 217.444 117.727 219.836 117.86C223.206 118.049 226.589 118.15 229.928 118.684C234.967 119.487 239.277 121.504 242.046 126.035C243.122 127.796 243.883 129.679 244.276 131.691C244.947 135.128 244.454 138.449 243.087 141.652C242.637 142.707 242.1 143.712 241.296 144.554C240.593 145.288 240.083 145.251 239.654 144.255C239.217 143.244 238.994 142.162 238.626 141.126C237.921 139.142 236.47 138.187 234.492 137.866C232.854 137.6 231.206 137.729 229.557 137.775C227.742 137.826 226.103 137.32 224.769 136.005C223.145 134.405 221.943 132.473 220.501 130.73C219.249 129.218 217.93 127.774 216.182 126.767C214.842 125.995 213.399 125.61 211.909 125.385C210.377 125.153 208.815 125.084 207.276 125.17C203.479 125.383 199.736 124.917 195.983 124.499C194.908 124.379 193.804 124.395 192.765 124.913C191.543 125.521 191.214 126.819 191.874 128.345C192.466 129.713 193.369 130.872 194.42 131.91C196.772 134.231 199.385 136.251 201.957 138.321C206.062 141.626 210.19 144.915 213.555 149.018C215.861 151.829 217.53 154.979 218.238 158.541C218.771 161.215 218.657 163.908 217.904 166.57C216.909 170.084 215.103 173.154 212.878 176.008C211.617 177.624 210.238 179.129 208.551 180.332C208.154 180.616 207.702 180.902 207.286 180.737C206.781 180.538 206.679 179.961 206.676 179.431C206.667 178.137 206.839 176.852 206.881 175.564C206.956 173.252 207.182 170.92 206.453 168.649C205.984 167.186 205.339 166.606 203.38 167.144C202.37 167.422 201.414 167.938 200.319 167.91C199.404 167.886 198.855 167.447 198.673 166.569C198.313 164.837 198.482 163.097 198.607 161.363C198.764 159.183 199.104 157.015 199.051 154.82C199.041 154.384 199.017 153.942 198.815 153.56C198.438 152.848 197.867 152.709 196.731 152.959C195.032 153.331 193.32 153.602 191.571 153.477C190.553 153.404 189.595 153.16 188.801 152.445C188.074 151.79 187.918 150.941 187.996 150.061C188.159 148.236 188.786 146.517 189.321 144.778C189.607 143.853 189.979 142.942 189.997 141.954C190.012 141.124 189.713 140.793 188.878 140.772C188.231 140.756 187.577 140.767 186.936 140.848C185.611 141.013 184.307 140.19 183.867 138.534C183.549 137.332 183.516 136.118 183.642 134.89C183.758 133.752 184.009 132.621 183.863 131.471C183.761 130.672 183.307 130.467 182.676 130.956C181.403 131.945 180.316 133.122 179.305 134.37C175.854 138.633 172.939 143.254 170.195 147.983C168.652 150.644 167.245 153.382 165.93 156.16C163.786 160.691 161.942 165.346 160.477 170.139C159.609 172.975 158.877 175.847 158.274 178.756C157.534 182.327 156.991 185.92 156.663 189.544C156.406 192.386 156.36 195.241 156.435 198.094C156.506 200.806 156.701 203.512 157.102 206.199C157.534 209.09 158.133 211.944 158.963 214.752C159.847 217.745 161.022 220.617 162.315 223.459C164.433 228.122 167.1 232.458 169.968 236.682C173.279 241.558 176.857 246.24 180.583 250.81C180.902 251.201 181.276 251.925 182.62 251.925" stroke="#EDE5CD" stroke-opacity="0.38" stroke-linecap="round" stroke-linejoin="round"/>
<path d="M183.571 117.858C183.356 117.169 183.658 116.509 183.748 115.854C184.005 113.979 183.773 112.163 183.349 110.347C182.29 105.82 179.924 101.995 176.911 98.5287C174.085 95.2777 170.71 92.6692 167.044 90.4235C164.934 89.1312 162.733 87.9905 160.462 87.0105C157.15 85.5813 153.742 84.3915 150.22 83.5944C146.734 82.8047 143.199 82.3541 139.606 82.4582C135.833 82.5683 132.198 83.3074 128.688 84.689C126.131 85.6943 123.735 86.9554 121.652 88.7728C121.126 89.2308 120.625 89.7067 120.256 90.2793C119.819 90.9574 119.792 91.652 120.692 92.0505C121.545 92.4283 122.469 92.5145 123.383 92.5666C125.898 92.7123 128.42 92.7718 130.933 92.9607C133.418 93.1466 135.899 93.3845 138.344 93.9571C139.413 94.2069 140.455 94.494 141.477 94.8806C142.978 95.4502 143.301 96.344 142.61 97.7851C142.315 98.4008 141.939 98.9629 141.623 99.5623C141.076 100.605 141.4 101.179 142.217 101.588C143.548 102.256 144.986 102.47 146.413 102.76C148.798 103.245 151.207 103.601 153.597 104.068C155.521 104.445 157.452 104.806 159.343 105.306C162.624 106.173 165.895 107.07 168.852 108.842C170.932 110.089 171.958 111.912 172.368 114.211C172.591 115.462 172.881 116.751 174.086 117.468C174.936 117.974 175.933 118.148 176.918 118.22C178.687 118.35 180.456 118.261 182.228 118.204C183.169 118.174 184.002 117.765 184.919 117.782C185.816 117.798 186.644 117.465 187.453 117.168C189.047 116.582 190.121 115.359 190.882 113.906C191.519 112.69 192.2 111.466 192.319 110.048C192.324 109.999 192.298 109.929 192.322 109.903C193.526 108.615 193.254 106.87 193.711 105.355C194.308 103.38 194.491 101.307 194.775 99.2648C194.921 98.2089 194.96 97.1352 195.005 96.0689C195.056 94.8554 195.135 93.6359 195.071 92.4268C194.909 89.3751 194.642 86.3472 193.927 83.346C193.142 80.0475 192.025 76.8976 190.44 73.9158C187.899 69.1375 184.425 65.1801 179.673 62.4749C175.848 60.2977 171.728 58.9161 167.348 58.2722C165.699 58.0298 164.06 58.0045 162.41 58C161.812 57.9985 161.235 58.1472 160.694 58.3778C159.931 58.7034 159.713 59.3043 160.097 60.0018C160.555 60.8301 161.19 61.5321 161.891 62.1537C163.825 63.8684 165.918 65.3883 167.94 66.996C170.88 69.3353 173.877 71.6122 176.316 74.5048C177.355 75.7361 177.732 77.1073 177.212 78.6689C177.004 79.292 177.158 79.8318 177.587 80.3048C178.267 81.0528 179.132 81.5599 179.978 82.0909C181.406 82.9862 182.857 83.8368 184.177 84.9031C185.867 86.2669 186.35 87.9861 186.045 90.0488C185.834 91.475 185.479 92.8893 185.795 94.3631C186.019 95.4116 186.311 96.4466 186.593 97.4728C187.059 99.1667 187.253 100.886 187.456 102.612C187.66 104.339 187.761 106.09 188.363 107.74C188.961 109.385 189.671 110.075 191.495 109.761C191.757 109.717 192.043 109.802 192.316 109.825" stroke="#EDE5CD" stroke-opacity="0.38" stroke-linecap="round" stroke-linejoin="round"/>
<path d="M199.123 115.404C199.414 114.817 199.989 114.655 200.546 114.519C204.129 113.649 207.765 112.977 211.235 111.683C212.944 111.045 214.645 110.39 215.873 108.937C216.613 108.061 217.023 107.011 217.346 105.955C217.991 103.841 219.483 102.698 221.478 102.015C223.603 101.288 225.813 100.831 227.912 100.019C228.369 99.8425 228.801 99.6224 229.172 99.3309C229.978 98.6973 230.295 97.8987 229.544 96.2241C229.077 95.1831 228.454 94.2105 227.996 93.165C227.133 91.196 227.64 89.4575 229.995 88.6127C231.491 88.0774 233.025 87.9941 234.565 87.9034C236.083 87.8141 237.604 87.7517 239.125 87.713C239.919 87.6922 240.755 87.6 241.516 87.2921C242.815 86.7672 243.23 85.8793 242.337 84.697C241.323 83.3526 239.872 82.6759 238.301 82.2476C236.103 81.6498 233.895 81.742 231.645 82.0662C227.552 82.6566 223.773 84.1334 220.148 85.9849C216.361 87.9212 212.938 90.4241 209.815 93.3182C206.044 96.8146 202.666 100.684 199.107 104.381C197.68 105.864 196.157 107.274 194.415 108.413C194.051 108.651 193.701 108.928 193.218 108.785" stroke="#EDE5CD" stroke-opacity="0.38" stroke-linecap="round" stroke-linejoin="round"/>
<path d="M176.47 125.815C176.245 125.311 176.151 124.745 175.919 124.265C175.4 123.188 174.566 122.382 173.486 121.784C171.379 120.617 169.09 120.094 166.748 119.719C164.855 119.415 162.968 119.06 161.064 118.843C159.08 118.617 157.079 118.516 155.084 118.383C152.49 118.211 149.892 118.287 147.31 118.542C145.041 118.767 142.804 119.171 140.57 119.68C137.488 120.381 134.58 121.518 131.776 122.88C129.711 123.884 127.782 125.18 125.92 126.552C120.16 130.801 115.224 135.881 110.673 141.357C109.075 143.28 107.51 145.228 106.087 147.288C105.743 147.786 105.607 148.234 105.662 148.792" stroke="#EDE5CD" stroke-opacity="0.38" stroke-linecap="round" stroke-linejoin="round"/>
<path d="M175.871 126.709C174.971 126.733 174.336 127.375 173.65 127.785C171.714 128.942 169.689 129.927 167.715 131.01C165.598 132.171 163.483 133.345 161.292 134.368C160.618 134.683 159.924 134.933 159.2 135.119C158.357 135.336 157.709 135.111 157.4 134.145C157.277 133.764 157.093 133.404 156.959 133.028C156.521 131.805 155.635 131.23 154.415 131.393C152.927 131.591 151.52 132.103 150.162 132.678C146.847 134.081 143.654 135.748 140.516 137.503C137.724 139.063 134.981 140.714 132.131 142.169C131.656 142.412 131.147 142.601 130.637 142.764C129.918 142.993 129.559 142.708 129.596 141.954C129.623 141.432 129.729 140.913 129.734 140.392C129.752 138.715 129.077 138.081 127.349 138.005C125.575 137.93 123.857 138.255 122.196 138.774C118.1 140.052 114.453 142.171 111.12 144.848C109.756 145.944 108.402 147.047 107.082 148.194C106.725 148.505 106.333 148.731 105.82 148.819C105.171 148.93 104.994 149.662 104.543 150.056C104.38 150.199 104.226 150.337 104.245 150.578" stroke="#EDE5CD" stroke-opacity="0.38" stroke-linecap="round" stroke-linejoin="round"/>
<path d="M1316.49 340.739C1273.55 342.391 1234.07 331.469 1221.51 278.301C1219.8 271.385 1218.64 263.978 1219.9 256.859C1220.51 253.01 1222.29 249.457 1223.16 245.738C1224.23 241.446 1223.08 237.079 1221.65 233.073C1217.7 221.972 1214.19 210.234 1207.9 200.401C1201.46 190.345 1191.69 184.631 1181.81 180.105C1179.62 179.107 1177.42 178.164 1175.22 177.237C1174.59 176.989 1173.99 176.769 1173.46 176.6C1172.45 176.277 1171.69 176.148 1171.33 176.297C1171.17 176.358 1171.06 176.495 1171.06 176.693C1171.17 177.737 1172.54 179.2 1173.35 180.233C1180.05 188.09 1186.25 196.685 1188.7 207.284C1190.18 213.497 1190.35 219.989 1190.48 226.396C1190.69 239.853 1190.83 253.327 1190 266.756C1189.05 282.145 1186.94 298.533 1189.62 314.077C1192.65 331.699 1202.5 344.069 1215.38 353.5C1240.06 371.575 1267.57 373.224 1295.93 370.421C1323.06 367.74 1376.8 362.333 1400.34 345.269C1403.28 343.135 1406.11 340.803 1408.8 338.262C1413.8 333.535 1418.73 328.167 1421.41 321.313C1422.49 318.794 1424.48 311.025 1419.7 314.077C1418.12 315.066 1416.42 316.701 1414.88 317.951C1409.07 322.859 1402.59 326.429 1395.87 329.319C1378.49 336.632 1334.89 340.207 1316.51 340.739H1316.49Z" stroke="#EDE5CD" stroke-opacity="0.38" stroke-miterlimit="10"/>
<path d="M1372.89 305.011C1377.08 294.647 1381 282.963 1385.25 272.63C1385.55 271.953 1385.88 271.297 1386.27 270.69C1387.94 267.889 1391.05 266.683 1394.24 266.809C1398.73 266.886 1402.94 269.77 1404.71 273.893C1405.32 275.217 1405.66 276.523 1406.51 277.565C1407.51 278.803 1409.01 278.565 1410.34 277.923C1413.18 276.545 1415.83 274.037 1419.17 274.339C1423.04 274.727 1424.44 279.583 1426.89 280.037C1428.46 280.146 1428.82 277.89 1428.96 276.453C1429.24 273.149 1428.68 269.715 1428.02 266.436C1427.3 262.965 1426.41 259.515 1424.97 256.27C1420.64 246.433 1411.45 239.584 1401.83 234.911C1394.61 231.381 1388.53 230.041 1380.52 231.391C1370.2 233.062 1360.21 237.339 1352.2 244.107C1350.14 245.92 1347.46 248.617 1346.69 251.273C1346.09 253.93 1349.36 253.61 1351.22 253.541C1352.9 253.472 1354.72 253.363 1356.2 253.846C1359.86 254.944 1360.25 259.407 1363.66 260.819C1366.47 262.003 1369.45 260.339 1372.15 259.467C1373.85 258.893 1375.6 258.536 1377.39 258.576C1383.38 258.596 1388.96 263.154 1390.05 269.075C1390.56 271.607 1389.87 274.197 1388.59 276.407C1387.85 277.735 1386.05 282.765 1385.26 284.065C1382.96 287.8 1382.12 291.558 1380.48 295.622C1375.76 307.445 1371.24 315.849 1366.62 327.706C1366.21 328.688 1365.4 330.467 1364.68 330.6C1364.44 330.609 1364.32 330.289 1364.33 329.722C1364.34 329.318 1364.42 328.788 1364.55 328.209C1364.86 326.869 1365.39 325.516 1365.87 324.232C1368.33 317.461 1368.86 315.389 1371.54 308.714L1372.9 305.012L1372.89 305.011Z" stroke="#EDE5CD" stroke-opacity="0.38" stroke-miterlimit="10"/>
<path d="M1307.69 305.063C1308.51 302.923 1309.26 300.732 1309.55 298.449C1309.97 294.9 1310.56 290.707 1308.19 287.92C1306.13 285.628 1302.67 285.939 1299.97 286.871C1298.64 287.327 1297.42 288.03 1296.24 288.784C1294.7 289.754 1292.72 291.057 1290.89 290.345C1288.28 289.222 1289.58 285.335 1287.35 283.058C1286.18 281.741 1284.35 281.177 1282.62 281.39C1281.29 281.521 1279.99 282.006 1278.71 282.316C1277.79 282.523 1275.93 282.901 1275.86 281.59C1275.87 280.638 1277.07 279.336 1277.85 278.59C1285.48 271.19 1295.27 264.825 1306.24 264.914C1313.86 264.964 1320.93 268.534 1327.21 272.601C1330.67 274.962 1334.7 277.59 1336.86 281.243C1339.53 285.797 1339.74 295.721 1339.37 301.032C1339.29 301.615 1339.25 304.376 1338.23 303.462C1337.81 303.061 1337.47 302.525 1336.99 301.815C1336.28 300.755 1335.45 299.707 1334.43 298.943C1330.28 295.893 1327.52 301.053 1323.68 301.622C1321.22 301.949 1320.36 299.442 1319.46 297.561C1318.93 296.475 1318.27 295.444 1317.46 294.546C1313.58 290.142 1308.04 291.332 1306.21 297.46C1305.68 299.067 1305.41 300.762 1304.92 302.385C1303.93 305.855 1302.03 309.065 1300.49 312.318C1299.35 314.663 1298.07 317.184 1297.12 319.601C1296.11 322.253 1293.59 324.215 1293.27 326.989C1293.06 328.641 1293.54 330.751 1295.42 329.748C1296.52 329.147 1298.09 326.112 1298.93 324.929C1301.1 321.819 1301.43 319.739 1302.9 316.441C1304.58 312.713 1306.2 308.889 1307.68 305.082L1307.69 305.065L1307.69 305.063Z" stroke="#EDE5CD" stroke-opacity="0.38" stroke-miterlimit="10"/>
</svg>
