<svg width="60" height="40" viewBox="0 0 60 40" fill="none" xmlns="http://www.w3.org/2000/svg">
<g id="Group 1171275192">
<g id="Vector">
<mask id="path-1-inside-1_8097_3396" fill="white">
<path d="M46.5478 22.0388C46.5428 22.0289 46.5428 22.0164 46.5478 22.0065L41.8138 10.4421H42.115C42.4714 10.4421 42.8102 10.3027 43.0613 10.0536C43.3123 9.80453 43.4554 9.46579 43.4554 9.11458V6.35743C43.4554 6.00625 43.3123 5.66754 43.0613 5.41842C42.8103 5.16936 42.4714 5.02988 42.115 5.02988H37.4311C35.9827 5.02988 34.8105 6.19052 34.8055 7.62763V7.83933C34.8105 8.2478 34.9109 8.65126 35.1017 9.01496C34.7453 8.79827 34.4365 8.51932 34.183 8.19053C33.3145 7.03237 31.944 6.34994 30.4881 6.34497H30.1593H30.1618C29.7903 6.34497 29.4916 6.64135 29.4916 7.00999C29.4916 7.37612 29.7903 7.67253 30.1618 7.67253H30.4906H30.4881C31.5248 7.6825 32.4962 8.17564 33.1137 9.00252C33.8994 10.0486 35.1017 10.7111 36.412 10.8207L37.7097 25.3786L37.7122 25.3811C37.431 25.685 37.17 26.0038 36.929 26.3375L29.3985 26.3027C28.4396 23.7572 28.2087 21.0001 28.7283 18.3325H30.1741C30.3523 18.3325 30.523 18.2628 30.6485 18.1383C30.774 18.0137 30.8443 17.8444 30.8443 17.67V15.7821C30.8393 14.2579 29.5943 13.0225 28.0581 13.02H20.0257V4.09347C20.0257 3.21178 19.6743 2.36746 19.0468 1.74477C18.4193 1.12211 17.5684 0.773438 16.6798 0.773438H5.45442C3.60698 0.773438 2.10846 2.26034 2.10846 4.09347V15.0202C2.10344 15.7375 2.33939 16.4399 2.77617 17.0127H0.667713C0.298726 17.0127 0 17.3091 0 17.6753C0 18.0439 0.298701 18.3403 0.667713 18.3403H2.70845L9.03396 25.6454H9.03647C8.06507 27.0949 7.53294 28.7886 7.49528 30.527V31.2444C7.49026 31.4237 7.55804 31.5955 7.68354 31.7226C7.81156 31.8521 7.98475 31.9243 8.16548 31.9218H9.92007C10.2564 35.5333 13.3087 38.2954 16.9635 38.2954C20.6183 38.2954 23.6727 35.5333 24.0095 31.9218H26.0175L28.1461 33.9866V33.9891C28.2716 34.1086 28.4398 34.1759 28.6155 34.1734H37.7923C37.9705 34.1709 38.1437 34.0987 38.2667 33.9691C39.1503 35.9318 40.812 37.4436 42.8577 38.1485C44.9034 38.8559 47.155 38.6915 49.0727 37.6952C50.993 36.6989 52.4137 34.9604 52.9961 32.8882C53.5809 30.8184 53.2772 28.6017 52.1552 26.7611H52.7526C53.0111 26.7636 53.2496 26.6167 53.36 26.3826C53.473 26.1484 53.4353 25.872 53.2672 25.6727C51.5779 23.6528 49.1734 22.3527 46.5478 22.0388ZM45.0895 21.9865H45.087C42.858 22.0363 40.7043 22.8085 38.9573 24.1858L37.7323 10.4421H40.3705L45.0895 21.9865ZM37.4311 9.11447C36.7207 9.11447 36.1459 8.54411 36.1459 7.83926V7.62755C36.1484 6.92516 36.7233 6.3573 37.4311 6.3573H42.115V9.11445L37.4311 9.11447ZM20.026 15.0198V14.3548H28.0583C28.859 14.3548 29.5092 14.9949 29.5117 15.7894V17.0124H19.3581C19.7924 16.437 20.026 15.7371 20.026 15.0198ZM8.40668 2.10058H13.7206V4.6236C13.7206 4.80043 13.6503 4.9698 13.5248 5.09433C13.3993 5.21886 13.2286 5.28861 13.0529 5.28861H9.07686C8.70536 5.28861 8.40664 4.99222 8.40664 4.62358L8.40668 2.10058ZM3.44667 4.09311C3.44667 2.99221 4.34527 2.10058 5.45476 2.10058H7.06875V4.6236C7.06875 5.7245 7.96734 6.61613 9.07684 6.61613H13.0529C14.1598 6.61613 15.0609 5.7245 15.0609 4.6236V2.10058H16.6799C17.7894 2.10058 18.688 2.99221 18.688 4.09311V10.2376H3.44648L3.44667 4.09311ZM3.44667 15.0198V11.5653H18.6882V15.0198C18.6882 16.1182 17.7896 17.0124 16.6801 17.0124H5.45476C4.34527 17.0124 3.44667 16.1182 3.44667 15.0198ZM4.47083 18.3399H11.833C10.9846 20.0559 10.5628 21.9489 10.6081 23.8591C10.3545 24.0908 10.1136 24.3299 9.88515 24.5839L4.47083 18.3399ZM16.9615 36.9702C14.0523 36.9627 11.6074 34.8008 11.266 31.9366H13.4423H13.4397C13.7636 33.6153 15.242 34.8282 16.964 34.8282C18.6859 34.8282 20.1669 33.6153 20.4882 31.9366H22.6569C22.318 34.8033 19.8707 36.9652 16.9615 36.9702ZM14.8254 31.9366H19.1026C18.8164 32.8705 17.9479 33.5081 16.964 33.5081C15.98 33.5081 15.114 32.8705 14.8254 31.9366ZM8.83375 30.6091V30.5692L8.83626 30.5667C8.93415 26.2354 12.501 22.7758 16.8686 22.7758H17.0418C21.4245 22.7758 24.9964 26.2602 25.0742 30.6062L8.83375 30.6091ZM35.0668 32.8606L28.8618 32.8581L26.3592 30.4396V30.4421C26.2789 28.0287 25.2573 25.7422 23.5078 24.0635C21.7582 22.3848 19.4213 21.4458 16.9887 21.4483H16.813C15.1062 21.4657 13.4394 21.9539 11.9936 22.8555C12.0463 21.254 12.5458 19.6973 13.4394 18.3598H27.3906C26.9966 20.5043 26.4544 26.2827 30.7366 30.7607C30.8621 30.8902 31.0353 30.9649 31.2185 30.9649H35.1669C35.1167 31.3759 35.0916 31.7893 35.0866 32.2003C35.0464 32.4593 35.054 32.6586 35.0665 32.8578L35.0668 32.8606ZM35.383 29.6576C35.3529 29.6526 35.3253 29.6526 35.2952 29.6576H31.4723C30.9226 29.0474 30.4406 28.3799 30.034 27.6651H36.1386C35.8148 28.3002 35.5613 28.9677 35.383 29.6576ZM37.4313 32.8581H36.4071V32.1931V32.1956C36.4197 28.7211 38.4654 25.5727 41.6482 24.1285C44.831 22.6843 48.5689 23.207 51.2266 25.466C46.854 25.7325 41.3999 27.3386 37.4313 32.8581ZM46.006 30.2005L45.1701 28.9378H45.2831V28.9402C46.0336 28.9303 46.6912 29.4359 46.8745 30.1582C47.0552 30.8805 46.7138 31.6327 46.0461 31.9739C45.3809 32.3176 44.5652 32.1607 44.0757 31.5953C43.5837 31.0325 43.5511 30.208 43.9904 29.6053L44.8864 30.9328C45.1023 31.2417 45.529 31.3214 45.8403 31.1096C46.1541 30.8954 46.2319 30.472 46.0185 30.1632L46.006 30.2005ZM45.2956 36.97C42.5771 36.975 40.1424 35.2963 39.1985 32.7658C40.1348 31.6076 41.2317 30.5864 42.4566 29.7297C42.3839 29.9837 42.3462 30.2452 42.3437 30.5068C42.3412 31.6002 42.9511 32.6015 43.9275 33.1095C44.9015 33.6151 46.0787 33.5429 46.9823 32.9177C47.886 32.2926 48.3629 31.2216 48.2223 30.1406C48.0818 29.0572 47.3463 28.1406 46.3121 27.7645C47.7178 27.2838 49.1761 26.9749 50.6571 26.8405C52.0301 28.8156 52.1858 31.3834 51.0638 33.508C49.9392 35.6325 47.7203 36.9625 45.3031 36.9625L45.2956 36.97Z"/>
</mask>
<path d="M46.5478 22.0388C46.5428 22.0289 46.5428 22.0164 46.5478 22.0065L41.8138 10.4421H42.115C42.4714 10.4421 42.8102 10.3027 43.0613 10.0536C43.3123 9.80453 43.4554 9.46579 43.4554 9.11458V6.35743C43.4554 6.00625 43.3123 5.66754 43.0613 5.41842C42.8103 5.16936 42.4714 5.02988 42.115 5.02988H37.4311C35.9827 5.02988 34.8105 6.19052 34.8055 7.62763V7.83933C34.8105 8.2478 34.9109 8.65126 35.1017 9.01496C34.7453 8.79827 34.4365 8.51932 34.183 8.19053C33.3145 7.03237 31.944 6.34994 30.4881 6.34497H30.1593H30.1618C29.7903 6.34497 29.4916 6.64135 29.4916 7.00999C29.4916 7.37612 29.7903 7.67253 30.1618 7.67253H30.4906H30.4881C31.5248 7.6825 32.4962 8.17564 33.1137 9.00252C33.8994 10.0486 35.1017 10.7111 36.412 10.8207L37.7097 25.3786L37.7122 25.3811C37.431 25.685 37.17 26.0038 36.929 26.3375L29.3985 26.3027C28.4396 23.7572 28.2087 21.0001 28.7283 18.3325H30.1741C30.3523 18.3325 30.523 18.2628 30.6485 18.1383C30.774 18.0137 30.8443 17.8444 30.8443 17.67V15.7821C30.8393 14.2579 29.5943 13.0225 28.0581 13.02H20.0257V4.09347C20.0257 3.21178 19.6743 2.36746 19.0468 1.74477C18.4193 1.12211 17.5684 0.773438 16.6798 0.773438H5.45442C3.60698 0.773438 2.10846 2.26034 2.10846 4.09347V15.0202C2.10344 15.7375 2.33939 16.4399 2.77617 17.0127H0.667713C0.298726 17.0127 0 17.3091 0 17.6753C0 18.0439 0.298701 18.3403 0.667713 18.3403H2.70845L9.03396 25.6454H9.03647C8.06507 27.0949 7.53294 28.7886 7.49528 30.527V31.2444C7.49026 31.4237 7.55804 31.5955 7.68354 31.7226C7.81156 31.8521 7.98475 31.9243 8.16548 31.9218H9.92007C10.2564 35.5333 13.3087 38.2954 16.9635 38.2954C20.6183 38.2954 23.6727 35.5333 24.0095 31.9218H26.0175L28.1461 33.9866V33.9891C28.2716 34.1086 28.4398 34.1759 28.6155 34.1734H37.7923C37.9705 34.1709 38.1437 34.0987 38.2667 33.9691C39.1503 35.9318 40.812 37.4436 42.8577 38.1485C44.9034 38.8559 47.155 38.6915 49.0727 37.6952C50.993 36.6989 52.4137 34.9604 52.9961 32.8882C53.5809 30.8184 53.2772 28.6017 52.1552 26.7611H52.7526C53.0111 26.7636 53.2496 26.6167 53.36 26.3826C53.473 26.1484 53.4353 25.872 53.2672 25.6727C51.5779 23.6528 49.1734 22.3527 46.5478 22.0388ZM45.0895 21.9865H45.087C42.858 22.0363 40.7043 22.8085 38.9573 24.1858L37.7323 10.4421H40.3705L45.0895 21.9865ZM37.4311 9.11447C36.7207 9.11447 36.1459 8.54411 36.1459 7.83926V7.62755C36.1484 6.92516 36.7233 6.3573 37.4311 6.3573H42.115V9.11445L37.4311 9.11447ZM20.026 15.0198V14.3548H28.0583C28.859 14.3548 29.5092 14.9949 29.5117 15.7894V17.0124H19.3581C19.7924 16.437 20.026 15.7371 20.026 15.0198ZM8.40668 2.10058H13.7206V4.6236C13.7206 4.80043 13.6503 4.9698 13.5248 5.09433C13.3993 5.21886 13.2286 5.28861 13.0529 5.28861H9.07686C8.70536 5.28861 8.40664 4.99222 8.40664 4.62358L8.40668 2.10058ZM3.44667 4.09311C3.44667 2.99221 4.34527 2.10058 5.45476 2.10058H7.06875V4.6236C7.06875 5.7245 7.96734 6.61613 9.07684 6.61613H13.0529C14.1598 6.61613 15.0609 5.7245 15.0609 4.6236V2.10058H16.6799C17.7894 2.10058 18.688 2.99221 18.688 4.09311V10.2376H3.44648L3.44667 4.09311ZM3.44667 15.0198V11.5653H18.6882V15.0198C18.6882 16.1182 17.7896 17.0124 16.6801 17.0124H5.45476C4.34527 17.0124 3.44667 16.1182 3.44667 15.0198ZM4.47083 18.3399H11.833C10.9846 20.0559 10.5628 21.9489 10.6081 23.8591C10.3545 24.0908 10.1136 24.3299 9.88515 24.5839L4.47083 18.3399ZM16.9615 36.9702C14.0523 36.9627 11.6074 34.8008 11.266 31.9366H13.4423H13.4397C13.7636 33.6153 15.242 34.8282 16.964 34.8282C18.6859 34.8282 20.1669 33.6153 20.4882 31.9366H22.6569C22.318 34.8033 19.8707 36.9652 16.9615 36.9702ZM14.8254 31.9366H19.1026C18.8164 32.8705 17.9479 33.5081 16.964 33.5081C15.98 33.5081 15.114 32.8705 14.8254 31.9366ZM8.83375 30.6091V30.5692L8.83626 30.5667C8.93415 26.2354 12.501 22.7758 16.8686 22.7758H17.0418C21.4245 22.7758 24.9964 26.2602 25.0742 30.6062L8.83375 30.6091ZM35.0668 32.8606L28.8618 32.8581L26.3592 30.4396V30.4421C26.2789 28.0287 25.2573 25.7422 23.5078 24.0635C21.7582 22.3848 19.4213 21.4458 16.9887 21.4483H16.813C15.1062 21.4657 13.4394 21.9539 11.9936 22.8555C12.0463 21.254 12.5458 19.6973 13.4394 18.3598H27.3906C26.9966 20.5043 26.4544 26.2827 30.7366 30.7607C30.8621 30.8902 31.0353 30.9649 31.2185 30.9649H35.1669C35.1167 31.3759 35.0916 31.7893 35.0866 32.2003C35.0464 32.4593 35.054 32.6586 35.0665 32.8578L35.0668 32.8606ZM35.383 29.6576C35.3529 29.6526 35.3253 29.6526 35.2952 29.6576H31.4723C30.9226 29.0474 30.4406 28.3799 30.034 27.6651H36.1386C35.8148 28.3002 35.5613 28.9677 35.383 29.6576ZM37.4313 32.8581H36.4071V32.1931V32.1956C36.4197 28.7211 38.4654 25.5727 41.6482 24.1285C44.831 22.6843 48.5689 23.207 51.2266 25.466C46.854 25.7325 41.3999 27.3386 37.4313 32.8581ZM46.006 30.2005L45.1701 28.9378H45.2831V28.9402C46.0336 28.9303 46.6912 29.4359 46.8745 30.1582C47.0552 30.8805 46.7138 31.6327 46.0461 31.9739C45.3809 32.3176 44.5652 32.1607 44.0757 31.5953C43.5837 31.0325 43.5511 30.208 43.9904 29.6053L44.8864 30.9328C45.1023 31.2417 45.529 31.3214 45.8403 31.1096C46.1541 30.8954 46.2319 30.472 46.0185 30.1632L46.006 30.2005ZM45.2956 36.97C42.5771 36.975 40.1424 35.2963 39.1985 32.7658C40.1348 31.6076 41.2317 30.5864 42.4566 29.7297C42.3839 29.9837 42.3462 30.2452 42.3437 30.5068C42.3412 31.6002 42.9511 32.6015 43.9275 33.1095C44.9015 33.6151 46.0787 33.5429 46.9823 32.9177C47.886 32.2926 48.3629 31.2216 48.2223 30.1406C48.0818 29.0572 47.3463 28.1406 46.3121 27.7645C47.7178 27.2838 49.1761 26.9749 50.6571 26.8405C52.0301 28.8156 52.1858 31.3834 51.0638 33.508C49.9392 35.6325 47.7203 36.9625 45.3031 36.9625L45.2956 36.97Z" fill="#3D3D3D"/>
<path d="M35.7327 30.015L35.7352 30.0125L35.0309 29.3027L35.0284 29.3052L35.7327 30.015ZM46.5478 22.0388L45.6548 22.4889L45.8963 22.9681L46.4291 23.0318L46.5478 22.0388ZM46.5478 22.0065L47.4408 22.4565L47.646 22.0494L47.4733 21.6276L46.5478 22.0065ZM41.8138 10.4421V9.44214H40.3238L40.8883 10.821L41.8138 10.4421ZM43.0613 10.0536L43.7656 10.7635L43.7657 10.7634L43.0613 10.0536ZM43.0613 5.41842L43.7657 4.70864L43.7656 4.70856L43.0613 5.41842ZM34.8055 7.62763L33.8055 7.62414V7.62763H34.8055ZM34.8055 7.83933H33.8054L33.8056 7.85162L34.8055 7.83933ZM35.1017 9.01496L34.5823 9.86945L37.6609 11.741L35.9873 8.55044L35.1017 9.01496ZM34.183 8.19053L33.3829 8.79054L33.3911 8.80112L34.183 8.19053ZM30.4881 6.34497L30.4915 5.34497H30.4881V6.34497ZM30.4881 7.67253V6.67253L30.4785 8.67249L30.4881 7.67253ZM33.1137 9.00252L32.3124 9.60085L32.3141 9.60308L33.1137 9.00252ZM36.412 10.8207L37.408 10.7319L37.3333 9.89431L36.4953 9.82421L36.412 10.8207ZM37.7097 25.3786L36.7136 25.4674L36.746 25.8312L37.0053 26.0885L37.7097 25.3786ZM37.7122 25.3811L38.4462 26.0602L39.102 25.3514L38.4165 24.6713L37.7122 25.3811ZM36.929 26.3375L36.9244 27.3375L37.4386 27.3399L37.7397 26.923L36.929 26.3375ZM29.3985 26.3027L28.4627 26.6552L28.7054 27.2995L29.3939 27.3027L29.3985 26.3027ZM28.7283 18.3325V17.3325H27.9043L27.7467 18.1414L28.7283 18.3325ZM30.8443 15.7821H31.8443L31.8443 15.7788L30.8443 15.7821ZM28.0581 13.02L28.0597 12.02H28.0581V13.02ZM20.0257 13.02H19.0257V14.02H20.0257V13.02ZM19.0468 1.74477L19.7512 1.03495L19.7512 1.03492L19.0468 1.74477ZM2.10846 15.0202L3.10846 15.0272V15.0202H2.10846ZM2.77617 17.0127V18.0127H4.79621L3.57138 16.4064L2.77617 17.0127ZM2.70845 18.3403L3.46442 17.6857L3.16534 17.3403H2.70845V18.3403ZM9.03396 25.6454L8.27798 26.3L8.57706 26.6454H9.03396V25.6454ZM9.03647 25.6454L9.86718 26.2021L10.9104 24.6454H9.03647V25.6454ZM7.49528 30.527L6.49552 30.5054L6.49528 30.5162V30.527H7.49528ZM7.49528 31.2444L8.49489 31.2723L8.49528 31.2583V31.2444H7.49528ZM7.68354 31.7226L6.97219 32.4254L6.97234 32.4256L7.68354 31.7226ZM8.16548 31.9218V30.9217L8.15169 30.9219L8.16548 31.9218ZM9.92007 31.9218L10.9158 31.8291L10.8313 30.9218H9.92007V31.9218ZM24.0095 31.9218V30.9218H23.0984L23.0138 31.829L24.0095 31.9218ZM26.0175 31.9218L26.7138 31.204L26.4229 30.9218H26.0175V31.9218ZM28.1461 33.9866H29.1461V33.5634L28.8424 33.2688L28.1461 33.9866ZM28.1461 33.9891H27.1461V34.4176L27.4564 34.7131L28.1461 33.9891ZM28.6155 34.1734V33.1734H28.6084L28.6013 33.1735L28.6155 34.1734ZM37.7923 34.1734V35.1735L37.8063 35.1733L37.7923 34.1734ZM38.2667 33.9691L39.1786 33.5586L38.5672 32.2006L37.5416 33.2805L38.2667 33.9691ZM42.8577 38.1485L43.1845 37.2034L43.1835 37.203L42.8577 38.1485ZM49.0727 37.6952L48.6122 36.8075L48.6117 36.8078L49.0727 37.6952ZM52.9961 32.8882L52.0337 32.6163L52.0334 32.6176L52.9961 32.8882ZM52.1552 26.7611V25.7611H50.3744L51.3013 27.2817L52.1552 26.7611ZM52.7526 26.7611L52.7622 25.7611H52.7526V26.7611ZM53.36 26.3826L52.4593 25.948L52.4556 25.9559L53.36 26.3826ZM53.2672 25.6727L52.5 26.3142L52.503 26.3177L53.2672 25.6727ZM45.0895 21.9865V22.9865H46.5786L46.0151 21.6082L45.0895 21.9865ZM45.087 21.9865V20.9865H45.0758L45.0646 20.9868L45.087 21.9865ZM38.9573 24.1858L37.9612 24.2745L38.1252 26.1151L39.5764 24.9711L38.9573 24.1858ZM37.7323 10.4421V9.44211H36.6393L36.7363 10.5309L37.7323 10.4421ZM40.3705 10.4421L41.2961 10.0637L41.042 9.44211H40.3705V10.4421ZM37.4311 9.11447V10.1145H37.4311L37.4311 9.11447ZM36.1459 7.62755L35.1459 7.62398V7.62755H36.1459ZM42.115 6.3573H43.115V5.3573H42.115V6.3573ZM42.115 9.11445L42.115 10.1145L43.115 10.1144V9.11445H42.115ZM20.026 14.3548V13.3548H19.026V14.3548H20.026ZM29.5117 15.7894H30.5117L30.5117 15.7863L29.5117 15.7894ZM29.5117 17.0124V18.0124H30.5117V17.0124H29.5117ZM19.3581 17.0124L18.5599 16.4099L17.3505 18.0124H19.3581V17.0124ZM8.40668 2.10058V1.10058H7.4067L7.40668 2.10056L8.40668 2.10058ZM13.7206 2.10058H14.7206V1.10058H13.7206V2.10058ZM8.40664 4.62358L7.40664 4.62356V4.62358H8.40664ZM3.44667 4.09311L4.44667 4.09314V4.09311H3.44667ZM7.06875 2.10058H8.06875V1.10058H7.06875V2.10058ZM15.0609 2.10058V1.10058H14.0609V2.10058H15.0609ZM18.688 10.2376V11.2376H19.688V10.2376H18.688ZM3.44648 10.2376L2.44648 10.2375L2.44645 11.2376H3.44648V10.2376ZM3.44667 11.5653V10.5653H2.44667V11.5653H3.44667ZM18.6882 11.5653H19.6882V10.5653H18.6882V11.5653ZM4.47083 18.3399V17.3399H2.28012L3.71531 18.995L4.47083 18.3399ZM11.833 18.3399L12.7294 18.783L13.4429 17.3399H11.833V18.3399ZM10.6081 23.8591L11.2826 24.5974L11.6186 24.2904L11.6078 23.8355L10.6081 23.8591ZM9.88515 24.5839L9.12963 25.239L9.87155 26.0946L10.6288 25.2525L9.88515 24.5839ZM16.9615 36.9702L16.9589 37.9702L16.9632 37.9702L16.9615 36.9702ZM11.266 31.9366V30.9366H10.1397L10.273 32.0549L11.266 31.9366ZM13.4397 31.9366V30.9366H12.2284L12.4578 32.126L13.4397 31.9366ZM20.4882 31.9366V30.9366H19.6614L19.506 31.7486L20.4882 31.9366ZM22.6569 31.9366L23.65 32.0539L23.7821 30.9366H22.6569V31.9366ZM14.8254 31.9366V30.9366H13.4696L13.87 32.2318L14.8254 31.9366ZM19.1026 31.9366L20.0587 32.2295L20.4548 30.9366H19.1026V31.9366ZM8.83375 30.6091H7.83375V31.6092L8.83392 31.6091L8.83375 30.6091ZM8.83375 30.5692L8.1287 29.86L7.83375 30.1533V30.5692H8.83375ZM8.83626 30.5667L9.5413 31.2759L9.8269 30.9919L9.836 30.5893L8.83626 30.5667ZM25.0742 30.6062L25.0743 31.6062L26.0922 31.6061L26.074 30.5884L25.0742 30.6062ZM35.0668 32.8606L35.0664 33.8606L36.1602 33.861L36.0628 32.7716L35.0668 32.8606ZM28.8618 32.8581L28.1669 33.5772L28.4574 33.8579L28.8614 33.8581L28.8618 32.8581ZM26.3592 30.4396L27.0542 29.7206L25.3592 28.0826V30.4396H26.3592ZM26.3592 30.4421L25.3598 30.4754L27.3592 30.4421H26.3592ZM23.5078 24.0635L24.2001 23.3419L24.2001 23.3419L23.5078 24.0635ZM16.9887 21.4483V22.4483L16.9897 22.4483L16.9887 21.4483ZM16.813 21.4483V20.4482L16.8028 20.4483L16.813 21.4483ZM11.9936 22.8555L10.9941 22.8226L10.9325 24.6957L12.5227 23.704L11.9936 22.8555ZM13.4394 18.3598V17.3598H12.9049L12.6079 17.8043L13.4394 18.3598ZM27.3906 18.3598L28.3742 18.5406L28.5912 17.3598H27.3906V18.3598ZM30.7366 30.7607L30.0139 31.4518L30.0185 31.4566L30.7366 30.7607ZM35.1669 30.9649L36.1595 31.0862L36.2965 29.9649H35.1669V30.9649ZM35.0866 32.2003L36.0748 32.3535L36.0857 32.2834L36.0865 32.2125L35.0866 32.2003ZM35.0665 32.8578L34.0685 32.9207L34.0693 32.9338L34.0705 32.9468L35.0665 32.8578ZM35.383 29.6576L35.2199 30.6442L36.1224 30.7935L36.3513 29.9077L35.383 29.6576ZM35.2952 29.6576V30.6576H35.3773L35.4583 30.6442L35.2952 29.6576ZM31.4723 29.6576L30.7293 30.3269L31.0272 30.6576H31.4723V29.6576ZM30.034 27.6651V26.6651H28.3147L29.1648 28.1595L30.034 27.6651ZM36.1386 27.6651L37.0295 28.1193L37.7709 26.6651H36.1386V27.6651ZM37.4313 32.8581V33.8581H37.9439L38.2432 33.4419L37.4313 32.8581ZM36.4071 32.8581H35.4071V33.8581H36.4071V32.8581ZM36.4071 32.1956H35.4071L37.4071 32.1992L36.4071 32.1956ZM51.2266 25.466L51.2875 26.4642L53.7672 26.3131L51.8743 24.7041L51.2266 25.466ZM46.006 30.2005L45.1721 30.7525L46.3027 32.4604L46.9541 30.5186L46.006 30.2005ZM45.1701 28.9378V27.9378H43.3089L44.3362 29.4897L45.1701 28.9378ZM45.2831 28.9378H46.2831V27.9378H45.2831V28.9378ZM45.2831 28.9402H44.2831V29.9536L45.2963 29.9402L45.2831 28.9402ZM46.8745 30.1582L47.8446 29.9155L47.8438 29.9123L46.8745 30.1582ZM46.0461 31.9739L45.591 31.0835L45.5871 31.0855L46.0461 31.9739ZM44.0757 31.5953L44.8318 30.9408L44.8286 30.9373L44.0757 31.5953ZM43.9904 29.6053L44.8192 29.0458L44.0217 27.8644L43.1822 29.0163L43.9904 29.6053ZM44.8864 30.9328L44.0576 31.4923L44.0622 31.499L44.0668 31.5057L44.8864 30.9328ZM45.8403 31.1096L46.4027 31.9365L46.4041 31.9355L45.8403 31.1096ZM46.0185 30.1632L46.8413 29.5948L45.7058 27.9511L45.0704 29.8451L46.0185 30.1632ZM45.2956 36.97L45.2974 37.97L45.7121 37.9693L46.0046 37.6753L45.2956 36.97ZM39.1985 32.7658L38.4209 32.1371L38.0622 32.5807L38.2616 33.1152L39.1985 32.7658ZM42.4566 29.7297L43.418 30.0051L44.1949 27.2935L41.8835 28.9102L42.4566 29.7297ZM42.3437 30.5068L41.3437 30.4972L41.3437 30.5045L42.3437 30.5068ZM43.9275 33.1095L43.466 33.9966L43.4668 33.997L43.9275 33.1095ZM46.9823 32.9177L47.5513 33.7401L46.9823 32.9177ZM48.2223 30.1406L47.2307 30.2693L47.2307 30.2695L48.2223 30.1406ZM46.3121 27.7645L45.9885 26.8183L43.3065 27.7355L45.9703 28.7043L46.3121 27.7645ZM50.6571 26.8405L51.4782 26.2697L51.1461 25.792L50.5667 25.8446L50.6571 26.8405ZM51.0638 33.508L51.9476 33.9758L51.948 33.975L51.0638 33.508ZM45.3031 36.9625V35.9625H44.8873L44.5941 36.2573L45.3031 36.9625ZM47.4408 21.5888C47.5785 21.8619 47.5785 22.1834 47.4408 22.4565L45.6548 21.5564C45.5071 21.8495 45.5071 22.1958 45.6548 22.4889L47.4408 21.5888ZM47.4733 21.6276L42.7392 10.0633L40.8883 10.821L45.6224 22.3853L47.4733 21.6276ZM41.8138 11.4421H42.115V9.44214H41.8138V11.4421ZM42.115 11.4421C42.734 11.4421 43.3263 11.1993 43.7656 10.7635L42.357 9.34367C42.2942 9.40603 42.2088 9.44214 42.115 9.44214V11.4421ZM43.7657 10.7634C44.2025 10.33 44.4554 9.73713 44.4554 9.11458H42.4554C42.4554 9.19445 42.4222 9.27904 42.357 9.34374L43.7657 10.7634ZM44.4554 9.11458V6.35743H42.4554V9.11458H44.4554ZM44.4554 6.35743C44.4554 5.73486 44.2024 5.14206 43.7657 4.70864L42.3569 6.1282C42.4222 6.19302 42.4554 6.27764 42.4554 6.35743H44.4554ZM43.7656 4.70856C43.3264 4.27272 42.734 4.02988 42.115 4.02988V6.02988C42.2089 6.02988 42.2942 6.06601 42.357 6.12828L43.7656 4.70856ZM42.115 4.02988H37.4311V6.02988H42.115V4.02988ZM37.4311 4.02988C35.4384 4.02988 33.8125 5.6296 33.8055 7.62414L35.8055 7.63111C35.8086 6.75144 36.5271 6.02988 37.4311 6.02988V4.02988ZM33.8055 7.62763V7.83933H35.8055V7.62763H33.8055ZM33.8056 7.85162C33.8125 8.4155 33.9511 8.97419 34.2162 9.47947L35.9873 8.55044C35.8708 8.32833 35.8086 8.08009 35.8054 7.82704L33.8056 7.85162ZM35.6212 8.16046C35.3722 8.00911 35.1551 7.81364 34.975 7.57993L33.3911 8.80112C33.7179 9.22499 34.1183 9.58743 34.5823 9.86945L35.6212 8.16046ZM34.983 7.59057C33.9242 6.1786 32.2573 5.351 30.4915 5.34497L30.4847 7.34496C31.6307 7.34888 32.7048 7.88614 33.383 8.79049L34.983 7.59057ZM30.4881 5.34497H30.1593V7.34497H30.4881V5.34497ZM30.1593 7.34497H30.1618V5.34497H30.1593V7.34497ZM30.1618 5.34497C29.2454 5.34497 28.4916 6.08172 28.4916 7.00999H30.4916C30.4916 7.20098 30.3352 7.34497 30.1618 7.34497V5.34497ZM28.4916 7.00999C28.4916 7.93813 29.2478 8.67253 30.1618 8.67253V6.67253C30.3328 6.67253 30.4916 6.81411 30.4916 7.00999H28.4916ZM30.1618 8.67253H30.4906V6.67253H30.1618V8.67253ZM30.4906 6.67253H30.4881V8.67253H30.4906V6.67253ZM30.4785 8.67249C31.2037 8.67946 31.882 9.0245 32.3124 9.60085L33.9149 8.4042C33.1104 7.32679 31.846 6.68554 30.4977 6.67258L30.4785 8.67249ZM32.3141 9.60308C33.2722 10.8787 34.7359 11.684 36.3286 11.8172L36.4953 9.82421C35.4675 9.73823 34.5265 9.21845 33.9133 8.40196L32.3141 9.60308ZM35.4159 10.9095L36.7136 25.4674L38.7057 25.2898L37.408 10.7319L35.4159 10.9095ZM37.0053 26.0885L37.0078 26.091L38.4165 24.6713L38.414 24.6688L37.0053 26.0885ZM36.9781 24.702C36.6697 25.0354 36.383 25.3854 36.1183 25.7521L37.7397 26.923C37.9569 26.6221 38.1924 26.3346 38.4462 26.0602L36.9781 24.702ZM36.9336 25.3375L29.4031 25.3027L29.3939 27.3027L36.9244 27.3375L36.9336 25.3375ZM30.3343 25.9502C29.4408 23.5783 29.2256 21.0094 29.7098 18.5237L27.7467 18.1414C27.1917 20.9907 27.4384 23.9361 28.4627 26.6552L30.3343 25.9502ZM28.7283 19.3325H30.1741V17.3325H28.7283V19.3325ZM30.1741 19.3325C30.6129 19.3325 31.0377 19.1608 31.3529 18.8481L29.9442 17.4284C30.0083 17.3648 30.0918 17.3325 30.1741 17.3325V19.3325ZM31.3529 18.8481C31.6669 18.5365 31.8443 18.1119 31.8443 17.67H29.8443C29.8443 17.5768 29.8811 17.491 29.9442 17.4284L31.3529 18.8481ZM31.8443 17.67V15.7821H29.8443V17.67H31.8443ZM31.8443 15.7788C31.8374 13.6979 30.1399 12.0234 28.0597 12.02L28.0565 14.02C29.0486 14.0216 29.8411 14.8178 29.8443 15.7854L31.8443 15.7788ZM28.0581 12.02H20.0257V14.02H28.0581V12.02ZM21.0257 13.02V4.09347H19.0257V13.02H21.0257ZM21.0257 4.09347C21.0257 2.94503 20.5678 1.84524 19.7512 1.03495L18.3424 2.45459C18.7809 2.88968 19.0257 3.47854 19.0257 4.09347H21.0257ZM19.7512 1.03492C18.9348 0.22489 17.8301 -0.226562 16.6798 -0.226562V1.77344C17.3066 1.77344 17.9038 2.01932 18.3425 2.45462L19.7512 1.03492ZM16.6798 -0.226562H5.45442V1.77344H16.6798V-0.226562ZM5.45442 -0.226562C3.06204 -0.226562 1.10846 1.70074 1.10846 4.09347H3.10846C3.10846 2.81995 4.15191 1.77344 5.45442 1.77344V-0.226562ZM1.10846 4.09347V15.0202H3.10846V4.09347H1.10846ZM1.10848 15.0132C1.1019 15.9538 1.41102 16.8716 1.98097 17.6191L3.57138 16.4064C3.26777 16.0082 3.10498 15.5212 3.10844 15.0272L1.10848 15.0132ZM2.77617 16.0127H0.667713V18.0127H2.77617V16.0127ZM0.667713 16.0127C-0.246182 16.0127 -1 16.7495 -1 17.6753H1C1 17.8687 0.843635 18.0127 0.667713 18.0127V16.0127ZM-1 17.6753C-1 18.601 -0.248716 19.3403 0.667713 19.3403V17.3403C0.846117 17.3403 1 17.4867 1 17.6753H-1ZM0.667713 19.3403H2.70845V17.3403H0.667713V19.3403ZM1.95247 18.9949L8.27798 26.3L9.78993 24.9908L3.46442 17.6857L1.95247 18.9949ZM9.03396 26.6454H9.03647V24.6454H9.03396V26.6454ZM8.20575 25.0887C7.12764 26.6974 6.53729 28.5769 6.49552 30.5054L8.49505 30.5487C8.52859 29.0003 9.00249 27.4924 9.86718 26.2021L8.20575 25.0887ZM6.49528 30.527V31.2444H8.49528V30.527H6.49528ZM6.49567 31.2164C6.48304 31.6677 6.65442 32.1038 6.97219 32.4254L8.39489 31.0197C8.46165 31.0873 8.49749 31.1797 8.49489 31.2723L6.49567 31.2164ZM6.97234 32.4256C7.28733 32.7442 7.72057 32.928 8.17928 32.9217L8.15169 30.9219C8.24894 30.9206 8.33578 30.9599 8.39474 31.0196L6.97234 32.4256ZM8.16548 32.9218H9.92007V30.9218H8.16548V32.9218ZM8.92438 32.0145C9.30919 36.1463 12.7986 39.2954 16.9635 39.2954V37.2954C13.8188 37.2954 11.2037 34.9203 10.9158 31.8291L8.92438 32.0145ZM16.9635 39.2954C21.128 39.2954 24.6199 36.1467 25.0051 32.0146L23.0138 31.829C22.7256 34.9199 20.1085 37.2954 16.9635 37.2954V39.2954ZM24.0095 32.9218H26.0175V30.9218H24.0095V32.9218ZM25.3213 32.6396L27.4499 34.7044L28.8424 33.2688L26.7138 31.204L25.3213 32.6396ZM27.1461 33.9866V33.9891H29.1461V33.9866H27.1461ZM27.4564 34.7131C27.7689 35.0109 28.1889 35.1795 28.6297 35.1733L28.6013 33.1735C28.6907 33.1722 28.7743 33.2064 28.8359 33.265L27.4564 34.7131ZM28.6155 35.1734H37.7923V33.1734H28.6155V35.1734ZM37.8063 35.1733C38.2405 35.1672 38.6744 34.992 38.9918 34.6578L37.5416 33.2805C37.6131 33.2053 37.7006 33.1746 37.7783 33.1735L37.8063 35.1733ZM37.3549 34.3797C38.3525 36.5956 40.2273 38.2999 42.5319 39.0939L43.1835 37.203C41.3966 36.5874 39.9481 35.2679 39.1786 33.5586L37.3549 34.3797ZM42.5309 39.0936C44.8357 39.8905 47.3721 39.7056 49.5337 38.5826L48.6117 36.8078C46.9379 37.6773 44.9712 37.8212 43.1845 37.2034L42.5309 39.0936ZM49.5333 38.5828C51.697 37.4603 53.3009 35.4995 53.9588 33.1587L52.0334 32.6176C51.5265 34.4213 50.289 35.9376 48.6122 36.8075L49.5333 38.5828ZM53.9584 33.1601C54.619 30.8222 54.2756 28.3184 53.009 26.2406L51.3013 27.2817C52.2788 28.8851 52.5428 30.8147 52.0337 32.6163L53.9584 33.1601ZM52.1552 27.7611H52.7526V25.7611H52.1552V27.7611ZM52.743 27.7611C53.3852 27.7673 53.9845 27.4026 54.2645 26.8092L52.4556 25.9559C52.5147 25.8307 52.6371 25.76 52.7622 25.7612L52.743 27.7611ZM54.2607 26.8171C54.549 26.2194 54.4479 25.5213 54.0314 25.0277L52.503 26.3177C52.4227 26.2226 52.3969 26.0775 52.4594 25.948L54.2607 26.8171ZM54.0343 25.0312C52.1807 22.8148 49.5438 21.3898 46.6665 21.0459L46.4291 23.0318C48.803 23.3155 50.9751 24.4907 52.5001 26.3142L54.0343 25.0312ZM45.0895 20.9865H45.087V22.9865H45.0895V20.9865ZM45.0646 20.9868C42.6195 21.0414 40.2562 21.8884 38.3382 23.4005L39.5764 24.9711C41.1524 23.7286 43.0964 23.0313 45.1093 22.9863L45.0646 20.9868ZM39.9533 24.097L38.7284 10.3533L36.7363 10.5309L37.9612 24.2745L39.9533 24.097ZM37.7323 11.4421H40.3705V9.44211H37.7323V11.4421ZM39.4448 10.8205L44.1638 22.3649L46.0151 21.6082L41.2961 10.0637L39.4448 10.8205ZM37.4311 8.11447C37.2657 8.11447 37.1459 7.98452 37.1459 7.83926H35.1459C35.1459 9.10371 36.1758 10.1145 37.4311 10.1145V8.11447ZM37.1459 7.83926V7.62755H35.1459V7.83926H37.1459ZM37.1459 7.63112C37.1464 7.48738 37.2664 7.3573 37.4311 7.3573V5.3573C36.1802 5.3573 35.1504 6.36293 35.1459 7.62398L37.1459 7.63112ZM37.4311 7.3573H42.115V5.3573H37.4311V7.3573ZM41.115 6.3573V9.11445H43.115V6.3573H41.115ZM42.115 8.11445L37.4311 8.11447L37.4311 10.1145L42.115 10.1145L42.115 8.11445ZM21.026 15.0198V14.3548H19.026V15.0198H21.026ZM20.026 15.3548H28.0583V13.3548H20.026V15.3548ZM28.0583 15.3548C28.318 15.3548 28.5109 15.559 28.5117 15.7926L30.5117 15.7863C30.5074 14.4307 29.4001 13.3548 28.0583 13.3548V15.3548ZM28.5117 15.7894V17.0124H30.5117V15.7894H28.5117ZM29.5117 16.0124H19.3581V18.0124H29.5117V16.0124ZM20.1563 17.6148C20.7217 16.8657 21.026 15.9543 21.026 15.0198H19.026C19.026 15.52 18.8631 16.0083 18.5599 16.4099L20.1563 17.6148ZM8.40668 3.10058H13.7206V1.10058H8.40668V3.10058ZM12.7206 2.10058V4.6236H14.7206V2.10058H12.7206ZM12.7206 4.6236C12.7206 4.53487 12.756 4.44841 12.8204 4.38448L14.2291 5.80418C14.5446 5.49119 14.7206 5.06599 14.7206 4.6236H12.7206ZM12.8204 4.38448C12.8832 4.32222 12.966 4.28861 13.0529 4.28861V6.28861C13.4911 6.28861 13.9154 6.11551 14.2291 5.80418L12.8204 4.38448ZM13.0529 4.28861H9.07686V6.28861H13.0529V4.28861ZM9.07686 4.28861C9.25028 4.28861 9.40664 4.43259 9.40664 4.62358H7.40664C7.40664 5.55185 8.16045 6.28861 9.07686 6.28861V4.28861ZM9.40664 4.6236L9.40668 2.1006L7.40668 2.10056L7.40664 4.62356L9.40664 4.6236ZM4.44667 4.09311C4.44667 3.55181 4.8902 3.10058 5.45476 3.10058V1.10058C3.80033 1.10058 2.44667 2.43261 2.44667 4.09311H4.44667ZM5.45476 3.10058H7.06875V1.10058H5.45476V3.10058ZM6.06875 2.10058V4.6236H8.06875V2.10058H6.06875ZM6.06875 4.6236C6.06875 6.2841 7.42241 7.61613 9.07684 7.61613V5.61613C8.51228 5.61613 8.06875 5.16489 8.06875 4.6236H6.06875ZM9.07684 7.61613H13.0529V5.61613H9.07684V7.61613ZM13.0529 7.61613C14.704 7.61613 16.0609 6.28491 16.0609 4.6236H14.0609C14.0609 5.16408 13.6157 5.61613 13.0529 5.61613V7.61613ZM16.0609 4.6236V2.10058H14.0609V4.6236H16.0609ZM15.0609 3.10058H16.6799V1.10058H15.0609V3.10058ZM16.6799 3.10058C17.2445 3.10058 17.688 3.55181 17.688 4.09311H19.688C19.688 2.43261 18.3344 1.10058 16.6799 1.10058V3.10058ZM17.688 4.09311V10.2376H19.688V4.09311H17.688ZM18.688 9.23756H3.44648V11.2376H18.688V9.23756ZM4.44648 10.2376L4.44667 4.09314L2.44667 4.09308L2.44648 10.2375L4.44648 10.2376ZM4.44667 15.0198V11.5653H2.44667V15.0198H4.44667ZM3.44667 12.5653H18.6882V10.5653H3.44667V12.5653ZM17.6882 11.5653V15.0198H19.6882V11.5653H17.6882ZM17.6882 15.0198C17.6882 15.5594 17.2439 16.0124 16.6801 16.0124V18.0124C18.3354 18.0124 19.6882 16.677 19.6882 15.0198H17.6882ZM16.6801 16.0124H5.45476V18.0124H16.6801V16.0124ZM5.45476 16.0124C4.89102 16.0124 4.44667 15.5594 4.44667 15.0198H2.44667C2.44667 16.677 3.79952 18.0124 5.45476 18.0124V16.0124ZM4.47083 19.3399H11.833V17.3399H4.47083V19.3399ZM10.9365 17.8967C10.017 19.7566 9.55925 21.8097 9.60834 23.8828L11.6078 23.8355C11.5664 22.088 11.9521 20.3552 12.7294 18.783L10.9365 17.8967ZM9.93354 23.1209C9.65995 23.3708 9.39525 23.6331 9.14155 23.9153L10.6288 25.2525C10.8319 25.0266 11.0491 24.8107 11.2826 24.5974L9.93354 23.1209ZM10.6407 23.9288L5.22635 17.6847L3.71531 18.995L9.12963 25.239L10.6407 23.9288ZM16.964 35.9702C14.5541 35.964 12.5398 34.1743 12.259 31.8182L10.273 32.0549C10.675 35.4273 13.5504 37.9614 16.9589 37.9702L16.964 35.9702ZM11.266 32.9366H13.4423V30.9366H11.266V32.9366ZM13.4423 30.9366H13.4397V32.9366H13.4423V30.9366ZM12.4578 32.126C12.8734 34.2803 14.768 35.8282 16.964 35.8282V33.8282C15.7161 33.8282 14.6537 32.9502 14.4216 31.7472L12.4578 32.126ZM16.964 35.8282C19.1588 35.8282 21.0576 34.2813 21.4703 32.1245L19.506 31.7486C19.2762 32.9493 18.213 33.8282 16.964 33.8282V35.8282ZM20.4882 32.9366H22.6569V30.9366H20.4882V32.9366ZM21.6638 31.8192C21.3852 34.1767 19.3694 35.966 16.9597 35.9702L16.9632 37.9702C20.372 37.9643 23.2509 35.43 23.65 32.0539L21.6638 31.8192ZM14.8254 32.9366H19.1026V30.9366H14.8254V32.9366ZM18.1464 31.6436C17.9905 32.1525 17.5137 32.5081 16.964 32.5081V34.5081C18.3821 34.5081 19.6423 33.5886 20.0587 32.2295L18.1464 31.6436ZM16.964 32.5081C16.4161 32.5081 15.9392 32.1539 15.7808 31.6413L13.87 32.2318C14.2888 33.5872 15.544 34.5081 16.964 34.5081V32.5081ZM9.83375 30.6091V30.5692H7.83375V30.6091H9.83375ZM9.53879 31.2784L9.5413 31.2759L8.13121 29.8575L8.1287 29.86L9.53879 31.2784ZM9.836 30.5893C9.92145 26.8087 13.0371 23.7758 16.8686 23.7758V21.7758C11.9649 21.7758 7.94685 25.6621 7.83651 30.5441L9.836 30.5893ZM16.8686 23.7758H17.0418V21.7758H16.8686V23.7758ZM17.0418 23.7758C20.886 23.7758 24.0064 26.8302 24.0743 30.6241L26.074 30.5884C25.9864 25.6902 21.9629 21.7758 17.0418 21.7758V23.7758ZM25.074 29.6062L8.83357 29.6091L8.83392 31.6091L25.0743 31.6062L25.074 29.6062ZM35.0672 31.8606L28.8622 31.8581L28.8614 33.8581L35.0664 33.8606L35.0672 31.8606ZM29.5567 32.139L27.0542 29.7206L25.6643 31.1587L28.1669 33.5772L29.5567 32.139ZM25.3592 30.4396V30.4421H27.3592V30.4396H25.3592ZM27.3587 30.4089C27.2697 27.7337 26.1372 25.2006 24.2001 23.3419L22.8154 24.785C24.3775 26.2839 25.2882 28.3236 25.3598 30.4754L27.3587 30.4089ZM24.2001 23.3419C22.2639 21.4841 19.6784 20.4455 16.9877 20.4483L16.9897 22.4483C19.1642 22.446 21.2525 23.2855 22.8154 24.7851L24.2001 23.3419ZM16.9887 20.4483H16.813V22.4483H16.9887V20.4483ZM16.8028 20.4483C14.9118 20.4676 13.0656 21.0085 11.4644 22.0069L12.5227 23.704C13.8132 22.8993 15.3005 22.4638 16.8232 22.4482L16.8028 20.4483ZM12.993 22.8884C13.0396 21.4734 13.4809 20.0978 14.2709 18.9153L12.6079 17.8043C11.6107 19.2969 11.053 21.0346 10.9941 22.8226L12.993 22.8884ZM13.4394 19.3598H27.3906V17.3598H13.4394V19.3598ZM26.4071 18.1791C25.9972 20.4099 25.387 26.6135 30.0139 31.4518L31.4593 30.0695C27.5217 25.952 27.996 20.5987 28.3742 18.5406L26.4071 18.1791ZM30.0185 31.4566C30.3303 31.7784 30.7618 31.9649 31.2185 31.9649V29.9649C31.3088 29.9649 31.3939 30.002 31.4547 30.0648L30.0185 31.4566ZM31.2185 31.9649H35.1669V29.9649H31.2185V31.9649ZM34.1743 30.8437C34.1192 31.2947 34.0921 31.7448 34.0867 32.1881L36.0865 32.2125C36.0911 31.8338 36.1142 31.457 36.1595 31.0862L34.1743 30.8437ZM34.0984 32.0471C34.0417 32.4126 34.0544 32.6963 34.0685 32.9207L36.0645 32.7949C36.0536 32.6208 36.0511 32.506 36.0748 32.3535L34.0984 32.0471ZM34.0705 32.9468L34.0707 32.9496L36.0628 32.7716L36.0625 32.7688L34.0705 32.9468ZM35.5462 28.671C35.408 28.6482 35.2702 28.6482 35.132 28.671L35.4583 30.6442C35.4238 30.6499 35.3835 30.6539 35.3391 30.6539C35.2947 30.6539 35.2544 30.6499 35.2199 30.6442L35.5462 28.671ZM35.2952 28.6576H31.4723V30.6576H35.2952V28.6576ZM32.2153 28.9883C31.7138 28.4316 31.2742 27.8228 30.9032 27.1706L29.1648 28.1595C29.6071 28.9371 30.1314 29.6632 30.7293 30.3269L32.2153 28.9883ZM30.034 28.6651H36.1386V26.6651H30.034V28.6651ZM35.2477 27.2109C34.891 27.9105 34.6114 28.6464 34.4148 29.4075L36.3513 29.9077C36.5111 29.289 36.7386 28.6899 37.0295 28.1193L35.2477 27.2109ZM37.4313 31.8581H36.4071V33.8581H37.4313V31.8581ZM37.4071 32.8581V32.1931H35.4071V32.8581H37.4071ZM35.4071 32.1931V32.1956H37.4071V32.1931H35.4071ZM37.4071 32.1992C37.4183 29.1189 39.2319 26.323 42.0614 25.0392L41.235 23.2179C37.6989 24.8224 35.4211 28.3233 35.4071 32.1919L37.4071 32.1992ZM42.0614 25.0392C44.8923 23.7547 48.2168 24.2202 50.579 26.228L51.8743 24.7041C48.921 22.1938 44.7697 21.614 41.235 23.2179L42.0614 25.0392ZM51.1658 24.4679C46.5987 24.7462 40.8169 26.4365 36.6194 32.2743L38.2432 33.4419C41.9829 28.2408 47.1094 26.7188 51.2875 26.4642L51.1658 24.4679ZM46.8399 29.6486L46.004 28.3858L44.3362 29.4897L45.1721 30.7525L46.8399 29.6486ZM45.1701 29.9378H45.2831V27.9378H45.1701V29.9378ZM44.2831 28.9378V28.9402H46.2831V28.9378H44.2831ZM45.2963 29.9402C45.5855 29.9363 45.836 30.1312 45.9052 30.4041L47.8438 29.9123C47.5465 28.7406 46.4817 27.9242 45.2698 27.9403L45.2963 29.9402ZM45.9044 30.4009C45.9718 30.6702 45.8456 30.9534 45.591 31.0835L46.5012 32.8644C47.5821 32.312 48.1387 31.0907 47.8446 29.9155L45.9044 30.4009ZM45.5871 31.0855C45.3319 31.2174 45.0185 31.1566 44.8317 30.9408L43.3197 32.2499C44.1118 33.1649 45.43 33.4179 46.5052 32.8623L45.5871 31.0855ZM44.8286 30.9373C44.6467 30.7291 44.632 30.4227 44.7985 30.1943L43.1822 29.0163C42.4701 29.9934 42.5207 31.3358 43.3228 32.2534L44.8286 30.9373ZM43.1615 30.1648L44.0576 31.4923L45.7153 30.3733L44.8192 29.0458L43.1615 30.1648ZM44.0668 31.5057C44.5941 32.2601 45.6358 32.4581 46.4027 31.9365L45.2779 30.2828C45.4223 30.1846 45.6105 30.2232 45.7061 30.3599L44.0668 31.5057ZM46.4041 31.9355C47.174 31.4099 47.371 30.3616 46.8413 29.5948L45.1958 30.7316C45.0928 30.5825 45.1341 30.3809 45.2765 30.2837L46.4041 31.9355ZM45.0704 29.8451L45.0579 29.8825L46.9541 30.5186L46.9666 30.4812L45.0704 29.8451ZM45.2938 35.97C42.9897 35.9743 40.9319 34.5515 40.1355 32.4163L38.2616 33.1152C39.3529 36.0411 42.1646 37.9758 45.2974 37.97L45.2938 35.97ZM39.9762 33.3944C40.853 32.3098 41.881 31.3527 43.0298 30.5491L41.8835 28.9102C40.5825 29.8202 39.4165 30.9054 38.4209 32.1371L39.9762 33.3944ZM41.4953 29.4542C41.3976 29.7952 41.3471 30.1461 41.3437 30.4972L43.3436 30.5164C43.3453 30.3443 43.3701 30.1723 43.418 30.0051L41.4953 29.4542ZM41.3437 30.5045C41.3403 31.9755 42.1613 33.3178 43.466 33.9966L44.3891 32.2224C43.7409 31.8851 43.342 31.2249 43.3437 30.5091L41.3437 30.5045ZM43.4668 33.997C44.7683 34.6727 46.3419 34.5768 47.5513 33.7401L46.4134 32.0954C45.8156 32.5089 45.0346 32.5575 44.3883 32.222L43.4668 33.997ZM47.5513 33.7401C48.7608 32.9033 49.4031 31.4662 49.214 30.0117L47.2307 30.2695C47.3227 30.9769 47.0111 31.6818 46.4134 32.0954L47.5513 33.7401ZM49.214 30.012C49.0251 28.5558 48.0372 27.3278 46.6539 26.8247L45.9703 28.7043C46.6554 28.9534 47.1384 29.5585 47.2307 30.2693L49.214 30.012ZM46.6357 28.7107C47.965 28.2561 49.3451 27.9637 50.7475 27.8364L50.5667 25.8446C49.0072 25.9862 47.4706 26.3115 45.9885 26.8183L46.6357 28.7107ZM49.836 27.4113C50.9957 29.0795 51.1269 31.247 50.1795 33.041L51.948 33.975C53.2446 31.5199 53.0646 28.5517 51.4782 26.2697L49.836 27.4113ZM50.1799 33.0401C49.23 34.8347 47.3528 35.9625 45.3031 35.9625V37.9625C48.0878 37.9625 50.6484 36.4302 51.9476 33.9758L50.1799 33.0401ZM44.5941 36.2573L44.5866 36.2648L46.0046 37.6753L46.012 37.6678L44.5941 36.2573Z" fill="#FFC43C" mask="url(#path-1-inside-1_8097_3396)"/>
</g>
<line id="Line 8" x1="60" y1="38.5098" x2="4.10958" y2="38.5098" stroke="#FFC43C" stroke-width="1.5"/>
</g>
</svg>
