<svg width="41" height="42" viewBox="0 0 41 42" fill="none" xmlns="http://www.w3.org/2000/svg">
<g id="Frame 69">
<g id="Group 26">
<g id="Group">
<path id="Vector" d="M8.58594 14.7481C8.58594 13.1832 9.20759 11.6824 10.3141 10.5759C11.4207 9.46931 12.9215 8.84766 14.4864 8.84766H26.2874C27.8523 8.84766 29.3531 9.46931 30.4597 10.5759C31.5662 11.6824 32.1879 13.1832 32.1879 14.7481V26.5491C32.1879 28.114 31.5662 29.6148 30.4597 30.7214C29.3531 31.8279 27.8523 32.4496 26.2874 32.4496H14.4864C12.9215 32.4496 11.4207 31.8279 10.3141 30.7214C9.20759 29.6148 8.58594 28.114 8.58594 26.5491V14.7481Z" stroke="white" stroke-width="2.14563" stroke-linecap="round" stroke-linejoin="round"/>
<path id="Vector_2" d="M27.0243 14.0098V14.0245M15.9609 20.6478C15.9609 21.8215 16.4272 22.9471 17.2571 23.777C18.087 24.6069 19.2126 25.0732 20.3863 25.0732C21.56 25.0732 22.6856 24.6069 23.5155 23.777C24.3454 22.9471 24.8117 21.8215 24.8117 20.6478C24.8117 19.4741 24.3454 18.3485 23.5155 17.5186C22.6856 16.6887 21.56 16.2224 20.3863 16.2224C19.2126 16.2224 18.087 16.6887 17.2571 17.5186C16.4272 18.3485 15.9609 19.4741 15.9609 20.6478Z" stroke="white" stroke-width="2.14563" stroke-linecap="round" stroke-linejoin="round"/>
</g>
</g>
</g>
</svg>
